<?xml version="1.0" encoding="UTF-8"?>
<svg width="33px" height="29px" viewBox="0 0 33 29" version="1.1" xmlns="http://www.w3.org/2000/svg" xmlns:xlink="http://www.w3.org/1999/xlink">
    <!-- Generator: Sketch 49 (51002) - http://www.bohemiancoding.com/sketch -->
    <title>icon_surprising</title>
    <desc>Created with Sketch.</desc>
    <defs></defs>
    <g id="FlexiGrid" stroke="none" stroke-width="1" fill="none" fill-rule="evenodd">
        <g id="Grid-M-(Tablet-Portrait)" transform="translate(-605.000000, -159.000000)" fill="#212428">
            <path d="M619.5,183.167 L622.723,183.167 L622.723,179.945 L619.5,179.945 L619.5,183.167 Z M609.511,184.778 L621.111,163.833 L632.712,184.778 L609.511,184.778 Z M636.922,184.439 L636.929,184.425 L622.525,159.84 L622.499,159.84 C622.223,159.347 621.716,159 621.111,159 C620.506,159 619.999,159.347 619.723,159.84 L619.697,159.84 L605.293,184.425 L605.301,184.439 C605.115,184.781 605,185.167 605,185.583 C605,186.917 606.083,188 607.417,188 L634.805,188 C636.139,188 637.222,186.917 637.222,185.583 C637.222,185.167 637.107,184.781 636.922,184.439 Z M620.143,178.333 L622.077,178.333 L622.722,170.278 L619.5,170.278 L620.143,178.333 Z" id="icon_surprising"></path>
        </g>
    </g>
</svg>