<?xml version="1.0" encoding="UTF-8"?>
<svg width="29px" height="26px" viewBox="0 0 29 26" version="1.1" xmlns="http://www.w3.org/2000/svg" xmlns:xlink="http://www.w3.org/1999/xlink">
    <!-- Generator: Sketch 49 (51002) - http://www.bohemiancoding.com/sketch -->
    <title>icon_heart</title>
    <desc>Created with Sketch.</desc>
    <defs></defs>
    <g id="FlexiGrid" stroke="none" stroke-width="1" fill="none" fill-rule="evenodd">
        <g id="Grid-M-(Tablet-Portrait)" transform="translate(-133.000000, -160.000000)" fill="#212428">
            <path d="M157.65,171.253125 L147.5,182.75 L137.348389,171.253125 L137.377389,171.253125 C136.666889,170.404875 136.222222,169.322625 136.222222,168.125 C136.222222,165.432375 138.385944,163.25 141.055556,163.25 C143.156444,163.25 144.928667,164.61175 145.594056,166.5 L145.674611,166.5 C145.674611,167.379125 146.491444,168.090875 147.5,168.090875 C148.506944,168.090875 149.323778,167.379125 149.323778,166.5 L149.407556,166.5 C150.072944,164.61175 151.843556,163.25 153.944444,163.25 C156.612444,163.25 158.777778,165.432375 158.777778,168.125 C158.777778,169.322625 158.333111,170.404875 157.622611,171.253125 L157.65,171.253125 Z M162,168.125 C162,163.63675 158.392722,160 153.944444,160 C151.297389,160 148.967722,161.304875 147.5,163.2955 C146.030667,161.304875 143.702611,160 141.055556,160 C136.605667,160 133,163.63675 133,168.125 C133,170.05875 133.697611,171.808875 134.814111,173.20475 L134.772222,173.216125 L145.244444,185.1875 C145.244444,185.1875 145.888889,186 147.5,186 C149.111111,186 149.755556,185.1875 149.755556,185.1875 L160.227778,173.216125 L160.184278,173.20475 C161.304,171.808875 162,170.05875 162,168.125 Z" id="icon_heart"></path>
        </g>
    </g>
</svg>