<?xml version="1.0" encoding="UTF-8" standalone="no"?>
<svg width="40px" height="40px" viewBox="0 0 40 40" version="1.1" xmlns="http://www.w3.org/2000/svg" xmlns:xlink="http://www.w3.org/1999/xlink">
    <!-- Generator: Sketch 49.1 (51147) - http://www.bohemiancoding.com/sketch -->
    <title>award_icon</title>
    <desc>Created with Sketch.</desc>
    <defs></defs>
    <g id="Design" stroke="none" stroke-width="1" fill="none" fill-rule="evenodd">
        <g id="desktop-award-2-v1" transform="translate(-460.000000, -289.000000)" fill="#4A4A4A">
            <g id="Group" transform="translate(0.000000, 243.000000)">
                <g id="award_icon" transform="translate(460.000000, 46.000000)">
                    <path d="M31.8813385,15.8706564 C31.9332046,15.3579794 31.969112,14.837323 31.969112,14.2927284 L31.9711068,8.03088803 C35.5917632,8.03088803 35.9388674,10.3548906 35.958816,11.0690476 C35.958816,13.9835264 34.7339768,15.4537323 31.8813385,15.8706564 Z M27.979408,14.2927284 C27.979408,18.1487773 26.3516088,20.498713 22.5294723,22.1604247 C21.8013514,22.4776062 21.3305663,23.1957529 21.3305663,23.989704 L21.3305663,33.963964 L18.6714286,33.963964 L18.6714286,23.989704 C18.6714286,23.1957529 18.2006435,22.4776062 17.4725225,22.1604247 C13.6503861,20.498713 12.020592,18.1487773 12.020592,14.2927284 L12.020592,4.04118404 L27.979408,4.04118404 L27.979408,14.2927284 Z M4.04118404,11.0690476 C4.06312741,10.3548906 4.41023166,8.03088803 8.03088803,8.03088803 L8.03088803,14.2927284 C8.03088803,14.837323 8.06879022,15.3579794 8.12065637,15.8706564 C5.26801802,15.4537323 4.04118404,13.9835264 4.04118404,11.0690476 Z M31.9711068,4.04118404 L31.969112,2.04633205 C31.969112,0.945173745 31.0774131,0.0514800515 29.97426,0.0514800515 L10.02574,0.0514800515 C8.92458172,0.0514800515 8.03088803,0.945173745 8.03088803,2.04633205 L8.03088803,4.04118404 C1.48577864,4.04118404 0.0514800515,9.096139 0.0514800515,11.0411197 C0.0514800515,14.284749 1.29028314,19.6429215 9.26769627,19.9700772 C10.3469112,22.156435 12.128314,23.9178893 14.6817246,25.2484556 L14.6817246,33.963964 L14.015444,33.963964 L12.020592,33.963964 C10.9194337,33.963964 10.02574,34.8576577 10.02574,35.958816 L10.02574,37.953668 C10.02574,39.0568211 10.9194337,39.9485199 12.020592,39.9485199 L27.979408,39.9485199 C29.0825611,39.9485199 29.97426,39.0568211 29.97426,37.953668 L29.97426,35.958816 C29.97426,34.8576577 29.0825611,33.963964 27.979408,33.963964 L25.3202703,33.963964 L25.3202703,25.2484556 C27.8736808,23.9178893 29.6550837,22.156435 30.7342986,19.9700772 C38.7117117,19.6429215 39.9485199,14.284749 39.9485199,11.0411197 C39.9485199,9.096139 38.5162162,4.04118404 31.9711068,4.04118404 Z" id="Fill-1"></path>
                </g>
            </g>
        </g>
    </g>
</svg>