<svg id="Layer_1" data-name="Layer 1" xmlns="http://www.w3.org/2000/svg" width="36.61mm" height="8mm" viewBox="0 0 103.77 22.68">
  <defs>
    <style>
      .cls-1 {
        fill: #c80b1c;
      }
    </style>
  </defs>
  <title>Artboard 1</title>
  <path class="cls-1" d="M95.54,20.35A2.31,2.31,0,1,0,93.22,18a2.31,2.31,0,0,0,2.31,2.31"/>
  <path class="cls-1" d="M101.78,6.71c0-2.06-2-4.45-5.8-4.45-3.3,0-5.39,2.37-5.39,4.41V8h4.28V6.88a1.18,1.18,0,0,1,1.24-1,1.14,1.14,0,0,1,1.2,1c0,1.39-4.78,3.11-4.78,6.39a2.83,2.83,0,0,0,.63,1.63h4.63a2.24,2.24,0,0,1-.54-1.35c0-2.52,4.54-3.32,4.54-6.84"/>
  <polygon class="cls-1" points="14.78 2.65 13.41 11.14 11.95 2.65 9.15 2.65 7.69 11.16 6.32 2.65 2.22 2.65 5.6 19.81 9.15 19.81 10.54 11.53 11.95 19.81 15.5 19.81 18.88 2.65 14.78 2.65"/>
  <polygon class="cls-1" points="26.77 2.65 26.77 9.22 24.19 9.22 24.19 2.65 19.87 2.65 19.87 19.81 24.19 19.81 24.19 12.99 26.77 12.99 26.77 19.81 31.1 19.81 31.1 2.65 26.77 2.65"/>
  <path class="cls-1" d="M37,14,37.86,8,38.69,14Zm2.52,5.77h4L40.44,2.65H35.25L32.17,19.81h4l.39-2.61h2.58Z"/>
  <polygon class="cls-1" points="52.46 2.65 42.51 2.65 42.51 6.09 45.36 6.09 45.36 19.81 49.69 19.81 49.69 6.09 52.46 6.09 52.46 2.65"/>
  <path class="cls-1" d="M59,6.83c0-.47.19-1,1.16-1a1,1,0,0,1,1.08,1.05V9.5h4.3V6.39c0-2.33-2.44-4.19-5.43-4.19s-5.43,1.89-5.43,4.19v9c0,3,2.62,4.85,5.81,4.85s5.06-2,5.06-4.85V13h-4.3V15.6a1,1,0,0,1-1.08,1.05c-1,0-1.16-.56-1.16-1Z"/>
  <path class="cls-1" d="M83.74,6c.64,0,.94.33.94.75V9.26c0,.42-.31.75-.94.75H82.68V6ZM78.56,2.65V19.81h4.13V13.17h.92a1,1,0,0,1,1.14,1.11V17a5.2,5.2,0,0,0,.67,2.86h4A6.73,6.73,0,0,1,88.84,17V14.52a2.86,2.86,0,0,0-2-3,2.8,2.8,0,0,0,1.91-2.74V6.67c0-2.41-1.72-4-4.41-4Z"/>
  <path class="cls-1" d="M71,14,71.83,8,72.66,14Zm2.52,5.77h4L74.41,2.65H69.22L66.14,19.81h4l.39-2.61H73.1Z"/>
</svg>
